Coordinates
version=1
nRows=20
nColumns=34
inDegrees=yes

Units are S.I. units (second, meters, Newtons, ...)
If the header above contains a line with 'inDegrees', this indicates whether rotational values are in degrees (yes) or radians (no).

endheader
time	pelvis_tilt	pelvis_list	pelvis_rotation	pelvis_tx	pelvis_ty	pelvis_tz	hip_flexion_r	hip_adduction_r	hip_rotation_r	knee_angle_r	ankle_angle_r	subtalar_angle_r	mtp_angle_r	hip_flexion_l	hip_adduction_l	hip_rotation_l	knee_angle_l	ankle_angle_l	subtalar_angle_l	mtp_angle_l	lumbar_extension	lumbar_bending	lumbar_rotation	arm_flex_r	arm_add_r	arm_rot_r	elbow_flex_r	pro_sup_r	arm_flex_l	arm_add_l	arm_rot_l	elbow_flex_l	pro_sup_l
     15.92500000	     -9.71102390	      2.79343001	     -3.77256095	      0.00241007	      0.87415955	      0.11565291	      0.12550795	     -0.35913750	     -0.75890193	     47.11323250	    -18.22503334	     -9.98282437	      0.00000000	     28.98230989	      5.58774233	      1.92577964	     13.88351324	     -5.57541843	     -3.25190411	      0.00000000	     -1.15187623	     -4.86646247	      7.65774449	     15.46236157	    -13.48810153	     16.91945037	     88.40165329	     93.26642137	    -30.14842056	    -12.24826711	    -11.92439076	     88.66551514	     99.64557291
     15.93333330	     -9.35698231	      3.01263217	     -3.77103761	      0.00320669	      0.86977887	      0.11704216	      1.46437455	     -0.89663740	     -1.03015270	     52.36525547	    -17.95849228	    -12.05656562	      0.00000000	     27.96468421	      5.85843287	      1.85873639	     13.83298371	     -5.76200186	     -2.73888519	      0.00000000	     -1.21552988	     -5.47983886	      7.85974022	     14.01203268	    -12.86225843	     16.42569127	     86.66870287	     93.06990431	    -29.60053993	    -12.23946261	    -12.91881635	     89.28587215	     99.66349625
     15.94166670	     -8.96242333	      3.23640229	     -3.70874970	      0.00441823	      0.86493774	      0.11733504	      2.77915367	     -1.63597970	     -1.64597315	     57.71931082	    -17.36639689	    -14.21424262	      0.00000000	     26.93256937	      6.23603476	      1.77349375	     14.34071658	     -5.60371951	     -2.76919987	      0.00000000	     -1.28541848	     -6.02639793	      7.93513437	     12.35273141	    -12.36843310	     15.93485927	     85.17549065	     92.88266611	    -29.27543783	    -12.37310653	    -13.55095346	     90.29102983	     99.70261399
     15.95000000	     -8.56584246	      3.44784819	     -3.66686315	      0.00544794	      0.85956989	      0.11799550	      4.14470623	     -2.43427227	     -2.33464800	     63.18241378	    -16.66919698	    -16.44516626	      0.00000000	     25.80732702	      6.62984298	      1.66954257	     15.21794480	     -4.91008684	     -3.18070515	      0.00000000	     -1.37527109	     -6.55380674	      7.92789799	     10.55393960	    -11.88730785	     15.37677308	     83.72745589	     92.69699258	    -29.00291597	    -12.62204768	    -13.85659484	     91.71436929	     99.76371185
     15.95833330	     -8.21562455	      3.64409018	     -3.56811625	      0.00606390	      0.85408674	      0.11812405	      5.43795689	     -3.27993062	     -3.03010280	     68.26395259	    -15.90644152	    -18.67379889	      0.00000000	     24.70898842	      7.08727252	      1.67712332	     16.38649262	     -3.61396466	     -3.80353378	      0.00000000	     -1.38867935	     -7.02165044	      7.75670161	      8.65427172	    -11.36102749	     14.56988492	     82.17836273	     92.47695875	    -28.67726698	    -12.97223089	    -13.80561280	     93.71024036	     99.87656450
     15.96666670	     -7.88366290	      3.80839792	     -3.40879897	      0.00586375	      0.84866354	      0.11773139	      6.72307167	     -4.15386249	     -3.67552222	     72.94872527	    -15.13411841	    -20.50838228	      0.00000000	     23.61906911	      7.59885798	      1.91105900	     17.75551930	     -1.90431100	     -4.52835927	      0.00000000	     -1.43630483	     -7.38443190	      7.36537469	      6.71204390	    -10.83538997	     13.75335358	     80.65225353	     92.25739961	    -28.19502177	    -13.43102360	    -13.36870769	     95.77093712	    100.05141616
     15.97500000	     -7.54058670	      3.94539890	     -3.19616670	      0.00640235	      0.84406417	      0.11756606	      7.90908771	     -4.97924356	     -4.19520321	     77.17960041	    -14.60680650	    -21.96350125	      0.00000000	     22.35415397	      8.17001243	      2.37296802	     19.15477796	      0.30695981	     -5.28653459	      0.00000000	     -1.52694904	     -7.65062004	      6.78171554	      4.79081030	    -10.32905989	     12.95980934	     79.03883326	     92.05471948	    -27.49760159	    -13.96741406	    -12.63128722	     97.69294611	    100.27680975
     15.98333330	     -7.27605286	      3.99695700	     -2.93399347	      0.00624815	      0.83972283	      0.11716291	      9.14443693	     -5.61849806	     -4.48830518	     80.98990857	    -14.44113637	    -23.06174566	      0.00000000	     21.04622695	      8.70825971	      2.98738898	     20.59266263	      2.93901944	     -5.92872214	      0.00000000	     -1.58677137	     -7.75291741	      5.98664031	      2.85903853	     -9.73030774	     12.07068552	     77.38296166	     91.84622007	    -26.56589349	    -14.59710210	    -11.47453295	     99.55839083	    100.59545337
     15.99166670	     -7.06563610	      3.94686511	     -2.61633043	      0.00592815	      0.83595419	      0.11688733	     10.35456405	     -5.97445841	     -4.59549767	     84.23329448	    -14.48744054	    -23.73042912	      0.00000000	     19.66718896	      9.15467629	      3.76584307	     21.87811599	      5.63593352	     -6.40346090	      0.00000000	     -1.68901868	     -7.76614717	      4.99818590	      0.95663467	     -9.27868693	     11.28413330	     75.78016893	     91.67572260	    -25.35300250	    -15.22741760	    -10.24642024	    101.19263971	    100.93727989
     16.00000000	     -6.98926633	      3.95387800	     -2.41655883	      0.00549521	      0.83235230	      0.11683198	     11.80935835	     -6.16429363	     -4.33294667	     87.14064485	    -14.87740850	    -23.54758933	      0.00000000	     18.35784338	      9.56451564	      4.24244296	     22.95228557	      8.41430308	     -6.45039108	      0.00000000	     -1.68799117	     -7.80013700	      4.16585514	     -1.01974397	     -8.52053622	      9.70962405	     74.34018620	     91.39537722	    -23.89075937	    -16.17658315	     -8.23748687	    102.75087603	    101.64799812
     16.00833330	     -6.96034468	      3.81455307	     -2.06762625	      0.00429970	      0.82849242	      0.11608338	     13.29210591	     -6.07147773	     -4.18366878	     89.83642742	    -15.05098382	    -23.05119178	      0.00000000	     17.07706165	      9.82026287	      4.85367462	     23.93769598	     10.93202134	     -6.31810191	      0.00000000	     -1.80764392	     -7.62480349	      3.19591174	     -3.06041742	     -8.07783950	      8.47124626	     73.30740615	     91.20308058	    -22.06079617	    -16.86592933	     -6.47814512	    104.30631364	    102.34639502
     16.01666670	     -6.91834667	      3.56391004	     -1.65398018	      0.00349766	      0.82549825	      0.11565414	     14.88768851	     -5.91568852	     -3.96732497	     92.46443094	    -14.54606712	    -23.84107651	      0.00000000	     15.63975023	      9.94501429	      5.56979221	     24.66061540	     12.95581063	     -6.56676587	      0.00000000	     -2.03606336	     -7.29451399	      1.83852790	     -4.77879751	     -8.11230339	      8.12606469	     72.38530476	     91.14932218	    -20.24242860	    -16.87870824	     -5.79030168	    105.55080470	    102.57143303
     16.02500000	     -7.08698469	      3.37810729	     -1.39395850	      0.00343786	      0.82316825	      0.11591925	     16.80698488	     -5.48332787	     -3.42693682	     94.59339621	    -13.62255612	    -22.90280018	      0.00000000	     14.17359698	      9.89361212	      5.72937597	     24.90591913	     14.64354239	     -5.60370839	      0.00000000	     -1.85698189	     -7.12244631	      1.59406743	     -7.44218186	     -7.30879917	      5.33193443	     72.11436261	     90.79919660	    -17.27874369	    -17.89808751	     -2.81845582	    106.59235356	    103.87044621
     16.03333330	     -7.21398909	      2.74711562	     -0.87690993	      0.00127822	      0.82119687	      0.11633721	     18.83600238	     -4.58482513	     -3.21342200	     96.30900455	    -12.76781829	    -22.78700369	      0.00000000	     12.64271432	      9.34435320	      6.17708214	     25.01578966	     15.62042294	     -5.37499597	      0.00000000	     -1.98478736	     -6.34604842	      0.02282873	     -9.13587041	     -7.26540636	      4.84811725	     71.78567644	     90.74788991	    -15.27422646	    -17.87388461	     -1.71470330	    108.08646294	    104.16319315
     16.04166670	     -7.31424132	      2.11564943	     -0.46802392	      0.00087630	      0.82108122	      0.11652093	     21.06199061	     -3.66085206	     -2.86854044	     97.62515125	    -11.14236289	    -23.03739187	      0.00000000	     11.02052901	      8.64808025	      6.32174805	     24.91093409	     15.73788803	     -5.05442243	      0.00000000	     -2.07041661	     -5.76021372	     -1.58737381	    -10.72167597	     -7.32064573	      4.53548534	     71.39277596	     90.70214851	    -13.14956174	    -17.62213385	     -1.17485718	    109.17858559	    104.28355642
     16.05000000	     -7.59879106	      1.52860283	     -0.27391120	     -0.00111007	      0.82136867	      0.11718576	     23.92078480	     -2.88911583	     -2.31381530	     98.29528601	     -8.10424242	    -21.89438783	      0.00000000	      9.59365413	      7.93126035	      6.17813957	     24.55038413	     15.70152763	     -4.66261599	      0.00000000	     -1.77788727	     -5.08863029	     -1.84532632	    -13.45934330	     -6.98196845	      1.98983946	     72.63759935	     90.34914328	     -9.40147438	    -18.22037509	      1.77213961	    109.60878174	    104.83992661
     16.05833330	     -7.70806860	      0.70677751	      0.15181274	     -0.00288701	      0.82283986	      0.11686973	     26.61910467	     -1.82401951	     -1.93123637	     98.05724878	     -6.84955910	    -22.66223779	      0.00000000	      7.89599626	      6.91551759	      6.36255553	     23.75942460	     15.05061058	     -4.23285056	      0.00000000	     -1.84988725	     -4.22397482	     -3.64612465	    -14.68959228	     -7.14283415	      1.82763584	     72.51528620	     90.32463762	     -6.98309959	    -17.77115522	      1.87084084	    110.51809820	    104.84099004
     16.06666670	     -7.82773726	     -0.07500613	      0.53769147	     -0.00609727	      0.82476557	      0.11716908	     29.32070691	     -0.90162016	     -1.63853782	     97.04376970	     -5.08304680	    -21.98558950	      0.00000000	      6.11492689	      5.88731112	      6.20710867	     22.65197772	     14.47451999	     -3.41499240	      0.00000000	     -2.11562054	     -3.35931159	     -3.66924475	    -17.71516388	     -6.96914526	     -0.78278317	     75.19057349	     89.96717111	     -2.42772788	    -17.95057001	      4.79385256	    110.63624664	    104.86486407
     16.07500000	     -8.20527544	     -0.91995367	      0.95324588	     -0.00780831	      0.82669431	      0.11686508	     32.05599543	      0.12179406	     -1.52745988	     95.26001885	     -4.64817540	    -21.99688703	      0.00000000	      4.32764493	      4.81441151	      6.39928279	     20.85202125	     13.23649644	     -2.61940574	      0.00000000	     -1.83447471	     -2.49184926	     -5.36178442	    -18.72523179	     -7.31030783	     -1.07115249	     75.13906976	     89.94315188	     -0.03027970	    -17.50806608	      4.71968296	    111.44663702	    104.80744161
     16.08333330	     -8.61521839	     -1.75744182	      1.34104529	     -0.01004438	      0.82891485	      0.11752240	     34.58345867	      1.12031669	     -1.52767640	     93.16975999	     -4.58058821	    -21.40561759	      0.00000000	      2.45047190	      3.66655055	      6.44532307	     18.72198054	     11.87255509	     -1.68116396	      0.00000000	     -1.55150351	     -1.66234716	     -6.80187308	    -19.80579361	     -7.74776906	     -1.44260794	     75.63631771	     89.91577235	      2.35593925	    -17.21062195	      4.68432989	    112.31841845	    104.73554890
